<?xml version="1.0" encoding="utf-8"?>
<!-- Generator: Adobe Illustrator 19.2.1, SVG Export Plug-In . SVG Version: 6.00 Build 0)  -->
<svg version="1.1" id="Layer_1" xmlns="http://www.w3.org/2000/svg" xmlns:xlink="http://www.w3.org/1999/xlink" x="0px" y="0px"
	 viewBox="0 0 283.5 122.7" style="enable-background:new 0 0 283.5 122.7;" xml:space="preserve">
<style type="text/css">
	.st0{fill:#127296;}
	.st1{fill:#575756;}
	.st2{fill:#00577F;}
	.st3{fill:#004169;}
	.st4{font-family:'MrEavesModOT-Bold';}
	.st5{font-size:13.8px;}
</style>
<path class="st3" d="M103.5,34.8c-0.4-0.6-1.1-1-1.8-1.3c-0.8-0.3-1.5-0.4-2.2-0.4c-0.4,0-0.8,0-1.2,0.1c-0.4,0.1-0.8,0.2-1.2,0.4
	c-0.4,0.2-0.7,0.5-0.9,0.8c-0.2,0.3-0.4,0.7-0.4,1.2c0,0.8,0.3,1.3,0.8,1.7c0.6,0.4,1.3,0.7,2.1,1c0.9,0.3,1.8,0.6,2.8,0.8
	c1,0.3,1.9,0.7,2.8,1.2c0.9,0.5,1.6,1.2,2.1,2.1c0.6,0.9,0.8,2,0.8,3.5c0,1.4-0.3,2.6-0.8,3.6c-0.5,1-1.2,1.9-2.1,2.6
	c-0.9,0.7-1.9,1.2-3.1,1.5c-1.2,0.3-2.4,0.5-3.7,0.5c-1.6,0-3.1-0.2-4.5-0.7c-1.4-0.5-2.7-1.3-3.9-2.4l3.9-4.3
	c0.6,0.8,1.3,1.3,2.1,1.8c0.9,0.4,1.8,0.6,2.7,0.6c0.4,0,0.9-0.1,1.4-0.2c0.5-0.1,0.9-0.3,1.2-0.5c0.4-0.2,0.7-0.5,0.9-0.8
	c0.2-0.3,0.3-0.7,0.3-1.2c0-0.8-0.3-1.4-0.9-1.8c-0.6-0.4-1.3-0.8-2.2-1.1c-0.9-0.3-1.8-0.6-2.8-0.9c-1-0.3-2-0.7-2.8-1.2
	c-0.9-0.5-1.6-1.2-2.2-2.1c-0.6-0.8-0.9-2-0.9-3.4c0-1.3,0.3-2.5,0.8-3.5c0.5-1,1.2-1.9,2.1-2.5c0.9-0.7,1.9-1.2,3.1-1.5
	c1.2-0.3,2.3-0.5,3.6-0.5c1.4,0,2.8,0.2,4.1,0.6c1.3,0.4,2.5,1.1,3.6,2L103.5,34.8z"/>
<polygon class="st3" points="110.6,28.7 127.7,28.7 127.7,33.8 116.2,33.8 116.2,38.5 127,38.5 127,43.6 116.2,43.6 116.2,48.6 
	128.3,48.6 128.3,53.7 110.6,53.7 "/>
<polygon class="st3" points="119.1,21.2 126.3,21.2 120.1,26.3 115.5,26.3 "/>
<path class="st3" d="M159.2,28.7h8.4l5.8,16.3h0.1l5.8-16.3h8.3v25.1H182V34.5h-0.1l-6.6,19.2h-4.2l-6.3-19.2h-0.1v19.2h-5.5V28.7z"
	/>
<path class="st3" d="M212.7,44.1c0,1.5-0.2,2.9-0.7,4.1c-0.4,1.3-1.1,2.3-2,3.3c-0.9,0.9-2,1.6-3.3,2.2c-1.3,0.5-2.8,0.8-4.6,0.8
	c-1.7,0-3.3-0.3-4.6-0.8c-1.3-0.5-2.4-1.2-3.3-2.2c-0.9-0.9-1.6-2-2-3.3c-0.4-1.3-0.7-2.6-0.7-4.1V28.7h5.5v15.2
	c0,0.8,0.1,1.5,0.4,2.2c0.2,0.7,0.6,1.2,1,1.7c0.4,0.5,1,0.9,1.6,1.1c0.6,0.3,1.3,0.4,2,0.4s1.4-0.1,2-0.4c0.6-0.3,1.1-0.6,1.6-1.1
	c0.4-0.5,0.8-1.1,1-1.7c0.2-0.7,0.4-1.4,0.4-2.2V28.7h5.5V44.1z"/>
<path class="st3" d="M229.2,34.8c-0.4-0.6-1.1-1-1.8-1.3c-0.8-0.3-1.5-0.4-2.2-0.4c-0.4,0-0.8,0-1.2,0.1c-0.4,0.1-0.8,0.2-1.2,0.4
	c-0.4,0.2-0.7,0.5-0.9,0.8c-0.2,0.3-0.4,0.7-0.4,1.2c0,0.8,0.3,1.3,0.8,1.7c0.6,0.4,1.3,0.7,2.1,1c0.9,0.3,1.8,0.6,2.8,0.8
	c1,0.3,1.9,0.7,2.8,1.2c0.9,0.5,1.6,1.2,2.1,2.1c0.6,0.9,0.8,2,0.8,3.5c0,1.4-0.3,2.6-0.8,3.6c-0.5,1-1.2,1.9-2.1,2.6
	c-0.9,0.7-1.9,1.2-3.1,1.5c-1.2,0.3-2.4,0.5-3.7,0.5c-1.6,0-3.1-0.2-4.5-0.7c-1.4-0.5-2.7-1.3-3.9-2.4l3.9-4.3
	c0.6,0.8,1.3,1.3,2.1,1.8c0.9,0.4,1.8,0.6,2.7,0.6c0.4,0,0.9-0.1,1.4-0.2c0.5-0.1,0.9-0.3,1.2-0.5c0.4-0.2,0.7-0.5,0.9-0.8
	c0.2-0.3,0.3-0.7,0.3-1.2c0-0.8-0.3-1.4-0.9-1.8c-0.6-0.4-1.3-0.8-2.2-1.1c-0.9-0.3-1.8-0.6-2.8-0.9c-1-0.3-2-0.7-2.8-1.2
	c-0.9-0.5-1.6-1.2-2.2-2.1c-0.6-0.8-0.9-2-0.9-3.4c0-1.3,0.3-2.5,0.8-3.5c0.5-1,1.2-1.9,2.1-2.5c0.9-0.7,1.9-1.2,3.1-1.5
	c1.2-0.3,2.3-0.5,3.6-0.5c1.4,0,2.8,0.2,4.1,0.6c1.3,0.4,2.5,1.1,3.6,2L229.2,34.8z"/>
<path class="st3" d="M90.1,58.6h5.5V68h10.7v-9.3h5.5v25.1h-5.5V72.8H95.6v10.8h-5.5V58.6z"/>
<path class="st3" d="M115.6,71.2c0-2,0.3-3.8,1-5.4c0.7-1.6,1.6-3,2.8-4.2c1.2-1.1,2.6-2,4.3-2.6c1.7-0.6,3.5-0.9,5.4-0.9
	c2,0,3.8,0.3,5.4,0.9c1.7,0.6,3.1,1.5,4.3,2.6c1.2,1.1,2.1,2.5,2.8,4.2c0.7,1.6,1,3.4,1,5.4c0,2-0.3,3.8-1,5.5
	c-0.7,1.6-1.6,3-2.8,4.2c-1.2,1.1-2.6,2-4.3,2.6c-1.7,0.6-3.5,0.9-5.4,0.9c-2,0-3.8-0.3-5.4-0.9c-1.7-0.6-3.1-1.5-4.3-2.6
	c-1.2-1.1-2.1-2.5-2.8-4.2C116,75,115.6,73.2,115.6,71.2z M121.4,71.2c0,1.2,0.2,2.3,0.5,3.2c0.4,1,0.9,1.8,1.6,2.5
	c0.7,0.7,1.5,1.3,2.5,1.7c1,0.4,2,0.6,3.2,0.6c1.2,0,2.2-0.2,3.2-0.6c1-0.4,1.8-1,2.5-1.7c0.7-0.7,1.2-1.6,1.6-2.5
	c0.4-1,0.5-2.1,0.5-3.2c0-1.2-0.2-2.2-0.5-3.2c-0.4-1-0.9-1.8-1.6-2.6c-0.7-0.7-1.5-1.3-2.5-1.7c-1-0.4-2-0.6-3.2-0.6
	c-1.2,0-2.2,0.2-3.2,0.6c-1,0.4-1.8,1-2.5,1.7c-0.7,0.7-1.2,1.6-1.6,2.6C121.5,68.9,121.4,70,121.4,71.2z"/>
<path class="st3" d="M141.8,58.6h6l5,16.1h0.1l5.2-16.1h5.1l5.2,16.5h0.1l5.2-16.5h5.6L171,83.7h-4.9l-5.5-17.3h-0.1L155,83.7h-4.7
	L141.8,58.6z"/>
<path class="st3" d="M185.1,58.6h5.6l9.4,25.1h-5.2l-2.2-5.3H183l-2.1,5.3h-5.3L185.1,58.6z M187.7,63.8l-3.5,9.9h7L187.7,63.8z"/>
<path class="st3" d="M202.5,58.6h9.7c1.3,0,2.5,0.1,3.6,0.4c1.1,0.2,2.1,0.7,3,1.2c0.9,0.6,1.5,1.4,2.1,2.3s0.8,2.2,0.8,3.7
	c0,1.8-0.5,3.3-1.4,4.5c-0.9,1.2-2.3,2-4,2.4l6.4,10.6H216l-5.2-10H208v10h-5.5V58.6z M208,69h3.3c0.5,0,1,0,1.6-0.1
	c0.6,0,1.1-0.1,1.5-0.3c0.4-0.2,0.8-0.5,1.1-0.8c0.3-0.4,0.4-0.9,0.4-1.6c0-0.6-0.1-1.1-0.4-1.5c-0.3-0.4-0.6-0.7-1-0.9
	c-0.4-0.2-0.9-0.3-1.4-0.4c-0.5-0.1-1-0.1-1.5-0.1H208V69z"/>
<path class="st3" d="M225.4,58.6h8.3c2,0,3.9,0.2,5.7,0.7c1.8,0.4,3.4,1.2,4.7,2.2c1.3,1,2.4,2.3,3.2,3.9c0.8,1.6,1.2,3.6,1.2,5.8
	c0,2-0.4,3.8-1.1,5.4c-0.8,1.5-1.8,2.8-3.1,3.9c-1.3,1-2.8,1.8-4.5,2.4c-1.7,0.5-3.5,0.8-5.3,0.8h-9V58.6z M231,78.6h2.9
	c1.3,0,2.5-0.1,3.6-0.4c1.1-0.3,2-0.7,2.8-1.3c0.8-0.6,1.4-1.4,1.9-2.4c0.5-1,0.7-2.2,0.7-3.6c0-1.2-0.2-2.3-0.7-3.2
	c-0.5-0.9-1.1-1.7-1.9-2.2c-0.8-0.6-1.7-1-2.7-1.3c-1-0.3-2.2-0.4-3.3-0.4H231V78.6z"/>
<text transform="matrix(1 0 0 1 90.1016 99.624)" class="st1 st4 st5">web developer</text>
<g>
	<g>
		<path class="st1" d="M80.1,69.5L30.7,49.2v-7.6l49.5-20.4v7.2l-41.9,17l41.9,16.9V69.5z"/>
	</g>
</g>
<g>
	<g>
		<path class="st1" d="M30.9,54.2L79.4,74v7.4l-48.5,20v-7.1l41-16.6l-41-16.5V54.2z"/>
	</g>
</g>
<g>
	<g>
		<path class="st3" d="M80.1,69.5L30.7,49.2v-7.6l7.6,3.8l41.9,16.9V69.5z"/>
	</g>
</g>
<g>
	<g>
		<path class="st3" d="M30.9,54.2L79.4,74v7.4l-7.4-3.7l-41-16.5V54.2z"/>
	</g>
</g>
<g>
	<g>
		<path class="st3" d="M58.9,42.9l5.4,1.7L50,81.8l-5.4-1.7L58.9,42.9z"/>
	</g>
</g>
<polygon class="st3" points="140.5,43.8 140.5,43.8 143.5,36 149.4,50.7 150.6,53.7 156.9,53.7 146,28.7 141.4,28.7 130.6,53.7 
	136.7,53.7 "/>
</svg>
